<svg class="main-svg" xmlns="http://www.w3.org/2000/svg" xmlns:xlink="http://www.w3.org/1999/xlink" width="600" height="600" style="" viewBox="0 0 600 600"><rect x="0" y="0" width="600" height="600" style="fill: rgb(255, 255, 255); fill-opacity: 1;"/><defs id="defs-31b3a1"><g class="clips"><clipPath id="clip31b3a1xyplot" class="plotclip"><rect width="423" height="391"/></clipPath><clipPath class="axesclip" id="clip31b3a1x"><rect x="97" y="0" width="423" height="600"/></clipPath><clipPath class="axesclip" id="clip31b3a1y"><rect x="0" y="129" width="600" height="391"/></clipPath><clipPath class="axesclip" id="clip31b3a1xy"><rect x="97" y="129" width="423" height="391"/></clipPath></g><g class="gradients"/><g class="patterns"/></defs><g class="bglayer"/><g class="layer-below"><g class="imagelayer"/><g class="shapelayer"/></g><g class="cartesianlayer"><g class="subplot xy"><g class="layer-subplot"><g class="shapelayer"/><g class="imagelayer"/></g><g class="minor-gridlayer"><g class="x"/><g class="y"/></g><g class="gridlayer"><g class="x"><path class="xgrid crisp" transform="translate(136,0)" d="M0,129v391" style="stroke: rgb(238, 238, 238); stroke-opacity: 1; stroke-width: 1px;"/><path class="xgrid crisp" transform="translate(245.4,0)" d="M0,129v391" style="stroke: rgb(238, 238, 238); stroke-opacity: 1; stroke-width: 1px;"/><path class="xgrid crisp" transform="translate(354.8,0)" d="M0,129v391" style="stroke: rgb(238, 238, 238); stroke-opacity: 1; stroke-width: 1px;"/><path class="xgrid crisp" transform="translate(464.2,0)" d="M0,129v391" style="stroke: rgb(238, 238, 238); stroke-opacity: 1; stroke-width: 1px;"/></g><g class="y"><path class="ygrid crisp" transform="translate(0,477.94)" d="M97,0h423" style="stroke: rgb(238, 238, 238); stroke-opacity: 1; stroke-width: 1px;"/><path class="ygrid crisp" transform="translate(0,415.27)" d="M97,0h423" style="stroke: rgb(238, 238, 238); stroke-opacity: 1; stroke-width: 1px;"/><path class="ygrid crisp" transform="translate(0,352.6)" d="M97,0h423" style="stroke: rgb(238, 238, 238); stroke-opacity: 1; stroke-width: 1px;"/><path class="ygrid crisp" transform="translate(0,289.91999999999996)" d="M97,0h423" style="stroke: rgb(238, 238, 238); stroke-opacity: 1; stroke-width: 1px;"/><path class="ygrid crisp" transform="translate(0,227.25)" d="M97,0h423" style="stroke: rgb(238, 238, 238); stroke-opacity: 1; stroke-width: 1px;"/><path class="ygrid crisp" transform="translate(0,164.57999999999998)" d="M97,0h423" style="stroke: rgb(238, 238, 238); stroke-opacity: 1; stroke-width: 1px;"/></g></g><g class="zerolinelayer"/><path class="xlines-below"/><path class="ylines-below"/><g class="overlines-below"/><g class="xaxislayer-below"/><g class="yaxislayer-below"/><g class="overaxes-below"/><g class="plot" transform="translate(97,129)" clip-path="url(#clip31b3a1xyplot)"><g class="scatterlayer mlayer"><g class="trace scatter trace307460" style="stroke-miterlimit: 2; opacity: 1;"><g class="fills"/><g class="errorbars"/><g class="lines"/><g class="points"><path class="point" transform="translate(183.63,166.36)" d="M3,0A3,3 0 1,1 0,-3A3,3 0 0,1 3,0Z" style="opacity: 1; stroke-width: 0px; fill: rgb(255, 255, 255); fill-opacity: 1;"/></g><g class="text"/></g><g class="trace scatter trace01e06e" style="stroke-miterlimit: 2; opacity: 1;"><g class="fills"/><g class="errorbars"/><g class="lines"/><g class="points"><path class="point" transform="translate(183.63,166.36)" d="M4,0A4,4 0 1,1 0,-4A4,4 0 0,1 4,0Z" style="opacity: 1; stroke-width: 0px; fill: rgb(14, 76, 146); fill-opacity: 1;"/><path class="point" transform="translate(240.96,53.09)" d="M4,0A4,4 0 1,1 0,-4A4,4 0 0,1 4,0Z" style="opacity: 1; stroke-width: 0px; fill: rgb(14, 76, 146); fill-opacity: 1;"/><path class="point" transform="translate(247.08,87.87)" d="M4,0A4,4 0 1,1 0,-4A4,4 0 0,1 4,0Z" style="opacity: 1; stroke-width: 0px; fill: rgb(14, 76, 146); fill-opacity: 1;"/><path class="point" transform="translate(396.85,59.18)" d="M4,0A4,4 0 1,1 0,-4A4,4 0 0,1 4,0Z" style="opacity: 1; stroke-width: 0px; fill: rgb(14, 76, 146); fill-opacity: 1;"/><path class="point" transform="translate(272.3,98.57)" d="M4,0A4,4 0 1,1 0,-4A4,4 0 0,1 4,0Z" style="opacity: 1; stroke-width: 0px; fill: rgb(14, 76, 146); fill-opacity: 1;"/><path class="point" transform="translate(189.54,203.81)" d="M4,0A4,4 0 1,1 0,-4A4,4 0 0,1 4,0Z" style="opacity: 1; stroke-width: 0px; fill: rgb(14, 76, 146); fill-opacity: 1;"/><path class="point" transform="translate(365.18,108.93)" d="M4,0A4,4 0 1,1 0,-4A4,4 0 0,1 4,0Z" style="opacity: 1; stroke-width: 0px; fill: rgb(14, 76, 146); fill-opacity: 1;"/><path class="point" transform="translate(244.02,108.91)" d="M4,0A4,4 0 1,1 0,-4A4,4 0 0,1 4,0Z" style="opacity: 1; stroke-width: 0px; fill: rgb(14, 76, 146); fill-opacity: 1;"/><path class="point" transform="translate(135.93,206.82)" d="M4,0A4,4 0 1,1 0,-4A4,4 0 0,1 4,0Z" style="opacity: 1; stroke-width: 0px; fill: rgb(14, 76, 146); fill-opacity: 1;"/><path class="point" transform="translate(219.51,173.91)" d="M4,0A4,4 0 1,1 0,-4A4,4 0 0,1 4,0Z" style="opacity: 1; stroke-width: 0px; fill: rgb(14, 76, 146); fill-opacity: 1;"/><path class="point" transform="translate(196.1,197.72)" d="M4,0A4,4 0 1,1 0,-4A4,4 0 0,1 4,0Z" style="opacity: 1; stroke-width: 0px; fill: rgb(14, 76, 146); fill-opacity: 1;"/><path class="point" transform="translate(231.38,97.22)" d="M4,0A4,4 0 1,1 0,-4A4,4 0 0,1 4,0Z" style="opacity: 1; stroke-width: 0px; fill: rgb(14, 76, 146); fill-opacity: 1;"/><path class="point" transform="translate(230.23,232.64)" d="M4,0A4,4 0 1,1 0,-4A4,4 0 0,1 4,0Z" style="opacity: 1; stroke-width: 0px; fill: rgb(14, 76, 146); fill-opacity: 1;"/><path class="point" transform="translate(274.65,24.55)" d="M4,0A4,4 0 1,1 0,-4A4,4 0 0,1 4,0Z" style="opacity: 1; stroke-width: 0px; fill: rgb(14, 76, 146); fill-opacity: 1;"/><path class="point" transform="translate(276.84,213.32)" d="M4,0A4,4 0 1,1 0,-4A4,4 0 0,1 4,0Z" style="opacity: 1; stroke-width: 0px; fill: rgb(14, 76, 146); fill-opacity: 1;"/><path class="point" transform="translate(265.24,110.39)" d="M4,0A4,4 0 1,1 0,-4A4,4 0 0,1 4,0Z" style="opacity: 1; stroke-width: 0px; fill: rgb(14, 76, 146); fill-opacity: 1;"/><path class="point" transform="translate(154.97,28.5)" d="M4,0A4,4 0 1,1 0,-4A4,4 0 0,1 4,0Z" style="opacity: 1; stroke-width: 0px; fill: rgb(14, 76, 146); fill-opacity: 1;"/><path class="point" transform="translate(180.18,186.64)" d="M4,0A4,4 0 1,1 0,-4A4,4 0 0,1 4,0Z" style="opacity: 1; stroke-width: 0px; fill: rgb(14, 76, 146); fill-opacity: 1;"/><path class="point" transform="translate(165.31,240.69)" d="M4,0A4,4 0 1,1 0,-4A4,4 0 0,1 4,0Z" style="opacity: 1; stroke-width: 0px; fill: rgb(14, 76, 146); fill-opacity: 1;"/><path class="point" transform="translate(240.46,165.53)" d="M4,0A4,4 0 1,1 0,-4A4,4 0 0,1 4,0Z" style="opacity: 1; stroke-width: 0px; fill: rgb(14, 76, 146); fill-opacity: 1;"/><path class="point" transform="translate(245.11,237.03)" d="M4,0A4,4 0 1,1 0,-4A4,4 0 0,1 4,0Z" style="opacity: 1; stroke-width: 0px; fill: rgb(14, 76, 146); fill-opacity: 1;"/><path class="point" transform="translate(296.37,44.21)" d="M4,0A4,4 0 1,1 0,-4A4,4 0 0,1 4,0Z" style="opacity: 1; stroke-width: 0px; fill: rgb(14, 76, 146); fill-opacity: 1;"/><path class="point" transform="translate(270.55,258.06)" d="M4,0A4,4 0 1,1 0,-4A4,4 0 0,1 4,0Z" style="opacity: 1; stroke-width: 0px; fill: rgb(14, 76, 146); fill-opacity: 1;"/><path class="point" transform="translate(179.42,164.84)" d="M4,0A4,4 0 1,1 0,-4A4,4 0 0,1 4,0Z" style="opacity: 1; stroke-width: 0px; fill: rgb(14, 76, 146); fill-opacity: 1;"/><path class="point" transform="translate(244.73,200.28)" d="M4,0A4,4 0 1,1 0,-4A4,4 0 0,1 4,0Z" style="opacity: 1; stroke-width: 0px; fill: rgb(14, 76, 146); fill-opacity: 1;"/><path class="point" transform="translate(305.61,156.78)" d="M4,0A4,4 0 1,1 0,-4A4,4 0 0,1 4,0Z" style="opacity: 1; stroke-width: 0px; fill: rgb(14, 76, 146); fill-opacity: 1;"/><path class="point" transform="translate(297.57,153.87)" d="M4,0A4,4 0 1,1 0,-4A4,4 0 0,1 4,0Z" style="opacity: 1; stroke-width: 0px; fill: rgb(14, 76, 146); fill-opacity: 1;"/><path class="point" transform="translate(185.27,138.16)" d="M4,0A4,4 0 1,1 0,-4A4,4 0 0,1 4,0Z" style="opacity: 1; stroke-width: 0px; fill: rgb(14, 76, 146); fill-opacity: 1;"/><path class="point" transform="translate(146.82,201.56)" d="M4,0A4,4 0 1,1 0,-4A4,4 0 0,1 4,0Z" style="opacity: 1; stroke-width: 0px; fill: rgb(14, 76, 146); fill-opacity: 1;"/><path class="point" transform="translate(290.62,214.04)" d="M4,0A4,4 0 1,1 0,-4A4,4 0 0,1 4,0Z" style="opacity: 1; stroke-width: 0px; fill: rgb(14, 76, 146); fill-opacity: 1;"/><path class="point" transform="translate(237.89,255.21)" d="M4,0A4,4 0 1,1 0,-4A4,4 0 0,1 4,0Z" style="opacity: 1; stroke-width: 0px; fill: rgb(14, 76, 146); fill-opacity: 1;"/><path class="point" transform="translate(238.66,164.87)" d="M4,0A4,4 0 1,1 0,-4A4,4 0 0,1 4,0Z" style="opacity: 1; stroke-width: 0px; fill: rgb(14, 76, 146); fill-opacity: 1;"/><path class="point" transform="translate(96.82,299.98)" d="M4,0A4,4 0 1,1 0,-4A4,4 0 0,1 4,0Z" style="opacity: 1; stroke-width: 0px; fill: rgb(14, 76, 146); fill-opacity: 1;"/><path class="point" transform="translate(254.25,153.32)" d="M4,0A4,4 0 1,1 0,-4A4,4 0 0,1 4,0Z" style="opacity: 1; stroke-width: 0px; fill: rgb(14, 76, 146); fill-opacity: 1;"/><path class="point" transform="translate(194.57,129.59)" d="M4,0A4,4 0 1,1 0,-4A4,4 0 0,1 4,0Z" style="opacity: 1; stroke-width: 0px; fill: rgb(14, 76, 146); fill-opacity: 1;"/><path class="point" transform="translate(257.31,216.3)" d="M4,0A4,4 0 1,1 0,-4A4,4 0 0,1 4,0Z" style="opacity: 1; stroke-width: 0px; fill: rgb(14, 76, 146); fill-opacity: 1;"/><path class="point" transform="translate(163.72,143.59)" d="M4,0A4,4 0 1,1 0,-4A4,4 0 0,1 4,0Z" style="opacity: 1; stroke-width: 0px; fill: rgb(14, 76, 146); fill-opacity: 1;"/><path class="point" transform="translate(246.64,156.54)" d="M4,0A4,4 0 1,1 0,-4A4,4 0 0,1 4,0Z" style="opacity: 1; stroke-width: 0px; fill: rgb(14, 76, 146); fill-opacity: 1;"/><path class="point" transform="translate(216.89,141.81)" d="M4,0A4,4 0 1,1 0,-4A4,4 0 0,1 4,0Z" style="opacity: 1; stroke-width: 0px; fill: rgb(14, 76, 146); fill-opacity: 1;"/><path class="point" transform="translate(139.82,191.08)" d="M4,0A4,4 0 1,1 0,-4A4,4 0 0,1 4,0Z" style="opacity: 1; stroke-width: 0px; fill: rgb(14, 76, 146); fill-opacity: 1;"/><path class="point" transform="translate(159.67,272.14)" d="M4,0A4,4 0 1,1 0,-4A4,4 0 0,1 4,0Z" style="opacity: 1; stroke-width: 0px; fill: rgb(14, 76, 146); fill-opacity: 1;"/><path class="point" transform="translate(166.35,148.28)" d="M4,0A4,4 0 1,1 0,-4A4,4 0 0,1 4,0Z" style="opacity: 1; stroke-width: 0px; fill: rgb(14, 76, 146); fill-opacity: 1;"/><path class="point" transform="translate(289.91,205.55)" d="M4,0A4,4 0 1,1 0,-4A4,4 0 0,1 4,0Z" style="opacity: 1; stroke-width: 0px; fill: rgb(14, 76, 146); fill-opacity: 1;"/><path class="point" transform="translate(210.11,210.41)" d="M4,0A4,4 0 1,1 0,-4A4,4 0 0,1 4,0Z" style="opacity: 1; stroke-width: 0px; fill: rgb(14, 76, 146); fill-opacity: 1;"/><path class="point" transform="translate(205.95,268.13)" d="M4,0A4,4 0 1,1 0,-4A4,4 0 0,1 4,0Z" style="opacity: 1; stroke-width: 0px; fill: rgb(14, 76, 146); fill-opacity: 1;"/><path class="point" transform="translate(185.54,170.1)" d="M4,0A4,4 0 1,1 0,-4A4,4 0 0,1 4,0Z" style="opacity: 1; stroke-width: 0px; fill: rgb(14, 76, 146); fill-opacity: 1;"/><path class="point" transform="translate(236.58,235.12)" d="M4,0A4,4 0 1,1 0,-4A4,4 0 0,1 4,0Z" style="opacity: 1; stroke-width: 0px; fill: rgb(14, 76, 146); fill-opacity: 1;"/><path class="point" transform="translate(169.68,117.05)" d="M4,0A4,4 0 1,1 0,-4A4,4 0 0,1 4,0Z" style="opacity: 1; stroke-width: 0px; fill: rgb(14, 76, 146); fill-opacity: 1;"/><path class="point" transform="translate(129.48,274.52)" d="M4,0A4,4 0 1,1 0,-4A4,4 0 0,1 4,0Z" style="opacity: 1; stroke-width: 0px; fill: rgb(14, 76, 146); fill-opacity: 1;"/><path class="point" transform="translate(203.98,255.12)" d="M4,0A4,4 0 1,1 0,-4A4,4 0 0,1 4,0Z" style="opacity: 1; stroke-width: 0px; fill: rgb(14, 76, 146); fill-opacity: 1;"/><path class="point" transform="translate(222.25,150.19)" d="M4,0A4,4 0 1,1 0,-4A4,4 0 0,1 4,0Z" style="opacity: 1; stroke-width: 0px; fill: rgb(14, 76, 146); fill-opacity: 1;"/><path class="point" transform="translate(214.04,180.2)" d="M4,0A4,4 0 1,1 0,-4A4,4 0 0,1 4,0Z" style="opacity: 1; stroke-width: 0px; fill: rgb(14, 76, 146); fill-opacity: 1;"/><path class="point" transform="translate(212.13,238.35)" d="M4,0A4,4 0 1,1 0,-4A4,4 0 0,1 4,0Z" style="opacity: 1; stroke-width: 0px; fill: rgb(14, 76, 146); fill-opacity: 1;"/><path class="point" transform="translate(231.99,205.92)" d="M4,0A4,4 0 1,1 0,-4A4,4 0 0,1 4,0Z" style="opacity: 1; stroke-width: 0px; fill: rgb(14, 76, 146); fill-opacity: 1;"/><path class="point" transform="translate(156.17,238.31)" d="M4,0A4,4 0 1,1 0,-4A4,4 0 0,1 4,0Z" style="opacity: 1; stroke-width: 0px; fill: rgb(14, 76, 146); fill-opacity: 1;"/><path class="point" transform="translate(175.53,317.33)" d="M4,0A4,4 0 1,1 0,-4A4,4 0 0,1 4,0Z" style="opacity: 1; stroke-width: 0px; fill: rgb(14, 76, 146); fill-opacity: 1;"/><path class="point" transform="translate(275.58,77.52)" d="M4,0A4,4 0 1,1 0,-4A4,4 0 0,1 4,0Z" style="opacity: 1; stroke-width: 0px; fill: rgb(14, 76, 146); fill-opacity: 1;"/><path class="point" transform="translate(274.49,127.9)" d="M4,0A4,4 0 1,1 0,-4A4,4 0 0,1 4,0Z" style="opacity: 1; stroke-width: 0px; fill: rgb(14, 76, 146); fill-opacity: 1;"/><path class="point" transform="translate(211.75,125.72)" d="M4,0A4,4 0 1,1 0,-4A4,4 0 0,1 4,0Z" style="opacity: 1; stroke-width: 0px; fill: rgb(14, 76, 146); fill-opacity: 1;"/><path class="point" transform="translate(272.68,197.42)" d="M4,0A4,4 0 1,1 0,-4A4,4 0 0,1 4,0Z" style="opacity: 1; stroke-width: 0px; fill: rgb(14, 76, 146); fill-opacity: 1;"/><path class="point" transform="translate(277.17,93.31)" d="M4,0A4,4 0 1,1 0,-4A4,4 0 0,1 4,0Z" style="opacity: 1; stroke-width: 0px; fill: rgb(14, 76, 146); fill-opacity: 1;"/><path class="point" transform="translate(137.9,273.28)" d="M4,0A4,4 0 1,1 0,-4A4,4 0 0,1 4,0Z" style="opacity: 1; stroke-width: 0px; fill: rgb(14, 76, 146); fill-opacity: 1;"/><path class="point" transform="translate(250.91,283.08)" d="M4,0A4,4 0 1,1 0,-4A4,4 0 0,1 4,0Z" style="opacity: 1; stroke-width: 0px; fill: rgb(14, 76, 146); fill-opacity: 1;"/><path class="point" transform="translate(233.57,158.86)" d="M4,0A4,4 0 1,1 0,-4A4,4 0 0,1 4,0Z" style="opacity: 1; stroke-width: 0px; fill: rgb(14, 76, 146); fill-opacity: 1;"/><path class="point" transform="translate(188.28,200.02)" d="M4,0A4,4 0 1,1 0,-4A4,4 0 0,1 4,0Z" style="opacity: 1; stroke-width: 0px; fill: rgb(14, 76, 146); fill-opacity: 1;"/><path class="point" transform="translate(287.07,237.93)" d="M4,0A4,4 0 1,1 0,-4A4,4 0 0,1 4,0Z" style="opacity: 1; stroke-width: 0px; fill: rgb(14, 76, 146); fill-opacity: 1;"/><path class="point" transform="translate(265.41,174.16)" d="M4,0A4,4 0 1,1 0,-4A4,4 0 0,1 4,0Z" style="opacity: 1; stroke-width: 0px; fill: rgb(14, 76, 146); fill-opacity: 1;"/><path class="point" transform="translate(256.65,257.36)" d="M4,0A4,4 0 1,1 0,-4A4,4 0 0,1 4,0Z" style="opacity: 1; stroke-width: 0px; fill: rgb(14, 76, 146); fill-opacity: 1;"/><path class="point" transform="translate(214.43,248.66)" d="M4,0A4,4 0 1,1 0,-4A4,4 0 0,1 4,0Z" style="opacity: 1; stroke-width: 0px; fill: rgb(14, 76, 146); fill-opacity: 1;"/><path class="point" transform="translate(234.61,216.33)" d="M4,0A4,4 0 1,1 0,-4A4,4 0 0,1 4,0Z" style="opacity: 1; stroke-width: 0px; fill: rgb(14, 76, 146); fill-opacity: 1;"/><path class="point" transform="translate(204.25,252.1)" d="M4,0A4,4 0 1,1 0,-4A4,4 0 0,1 4,0Z" style="opacity: 1; stroke-width: 0px; fill: rgb(14, 76, 146); fill-opacity: 1;"/><path class="point" transform="translate(208.57,205.88)" d="M4,0A4,4 0 1,1 0,-4A4,4 0 0,1 4,0Z" style="opacity: 1; stroke-width: 0px; fill: rgb(14, 76, 146); fill-opacity: 1;"/><path class="point" transform="translate(180.79,318.16)" d="M4,0A4,4 0 1,1 0,-4A4,4 0 0,1 4,0Z" style="opacity: 1; stroke-width: 0px; fill: rgb(14, 76, 146); fill-opacity: 1;"/><path class="point" transform="translate(194.79,178.84)" d="M4,0A4,4 0 1,1 0,-4A4,4 0 0,1 4,0Z" style="opacity: 1; stroke-width: 0px; fill: rgb(14, 76, 146); fill-opacity: 1;"/><path class="point" transform="translate(216.18,180.23)" d="M4,0A4,4 0 1,1 0,-4A4,4 0 0,1 4,0Z" style="opacity: 1; stroke-width: 0px; fill: rgb(14, 76, 146); fill-opacity: 1;"/><path class="point" transform="translate(239.92,156.65)" d="M4,0A4,4 0 1,1 0,-4A4,4 0 0,1 4,0Z" style="opacity: 1; stroke-width: 0px; fill: rgb(14, 76, 146); fill-opacity: 1;"/><path class="point" transform="translate(249,75.1)" d="M4,0A4,4 0 1,1 0,-4A4,4 0 0,1 4,0Z" style="opacity: 1; stroke-width: 0px; fill: rgb(14, 76, 146); fill-opacity: 1;"/><path class="point" transform="translate(170.99,141.67)" d="M4,0A4,4 0 1,1 0,-4A4,4 0 0,1 4,0Z" style="opacity: 1; stroke-width: 0px; fill: rgb(14, 76, 146); fill-opacity: 1;"/><path class="point" transform="translate(173.57,274.57)" d="M4,0A4,4 0 1,1 0,-4A4,4 0 0,1 4,0Z" style="opacity: 1; stroke-width: 0px; fill: rgb(14, 76, 146); fill-opacity: 1;"/><path class="point" transform="translate(185.33,216.31)" d="M4,0A4,4 0 1,1 0,-4A4,4 0 0,1 4,0Z" style="opacity: 1; stroke-width: 0px; fill: rgb(14, 76, 146); fill-opacity: 1;"/><path class="point" transform="translate(287.07,116.01)" d="M4,0A4,4 0 1,1 0,-4A4,4 0 0,1 4,0Z" style="opacity: 1; stroke-width: 0px; fill: rgb(14, 76, 146); fill-opacity: 1;"/><path class="point" transform="translate(225.42,193.8)" d="M4,0A4,4 0 1,1 0,-4A4,4 0 0,1 4,0Z" style="opacity: 1; stroke-width: 0px; fill: rgb(14, 76, 146); fill-opacity: 1;"/><path class="point" transform="translate(288.87,294.47)" d="M4,0A4,4 0 1,1 0,-4A4,4 0 0,1 4,0Z" style="opacity: 1; stroke-width: 0px; fill: rgb(14, 76, 146); fill-opacity: 1;"/><path class="point" transform="translate(241.83,319.72)" d="M4,0A4,4 0 1,1 0,-4A4,4 0 0,1 4,0Z" style="opacity: 1; stroke-width: 0px; fill: rgb(14, 76, 146); fill-opacity: 1;"/><path class="point" transform="translate(209.72,157.22)" d="M4,0A4,4 0 1,1 0,-4A4,4 0 0,1 4,0Z" style="opacity: 1; stroke-width: 0px; fill: rgb(14, 76, 146); fill-opacity: 1;"/><path class="point" transform="translate(239.04,128.66)" d="M4,0A4,4 0 1,1 0,-4A4,4 0 0,1 4,0Z" style="opacity: 1; stroke-width: 0px; fill: rgb(14, 76, 146); fill-opacity: 1;"/><path class="point" transform="translate(157.76,132.88)" d="M4,0A4,4 0 1,1 0,-4A4,4 0 0,1 4,0Z" style="opacity: 1; stroke-width: 0px; fill: rgb(14, 76, 146); fill-opacity: 1;"/><path class="point" transform="translate(26.15,309.28)" d="M4,0A4,4 0 1,1 0,-4A4,4 0 0,1 4,0Z" style="opacity: 1; stroke-width: 0px; fill: rgb(14, 76, 146); fill-opacity: 1;"/><path class="point" transform="translate(174.61,165.07)" d="M4,0A4,4 0 1,1 0,-4A4,4 0 0,1 4,0Z" style="opacity: 1; stroke-width: 0px; fill: rgb(14, 76, 146); fill-opacity: 1;"/><path class="point" transform="translate(170.72,174.37)" d="M4,0A4,4 0 1,1 0,-4A4,4 0 0,1 4,0Z" style="opacity: 1; stroke-width: 0px; fill: rgb(14, 76, 146); fill-opacity: 1;"/><path class="point" transform="translate(210.54,244.55)" d="M4,0A4,4 0 1,1 0,-4A4,4 0 0,1 4,0Z" style="opacity: 1; stroke-width: 0px; fill: rgb(14, 76, 146); fill-opacity: 1;"/><path class="point" transform="translate(164.59,216.77)" d="M4,0A4,4 0 1,1 0,-4A4,4 0 0,1 4,0Z" style="opacity: 1; stroke-width: 0px; fill: rgb(14, 76, 146); fill-opacity: 1;"/><path class="point" transform="translate(82.27,366.45)" d="M4,0A4,4 0 1,1 0,-4A4,4 0 0,1 4,0Z" style="opacity: 1; stroke-width: 0px; fill: rgb(14, 76, 146); fill-opacity: 1;"/><path class="point" transform="translate(185.49,222.79)" d="M4,0A4,4 0 1,1 0,-4A4,4 0 0,1 4,0Z" style="opacity: 1; stroke-width: 0px; fill: rgb(14, 76, 146); fill-opacity: 1;"/><path class="point" transform="translate(182.1,217.91)" d="M4,0A4,4 0 1,1 0,-4A4,4 0 0,1 4,0Z" style="opacity: 1; stroke-width: 0px; fill: rgb(14, 76, 146); fill-opacity: 1;"/><path class="point" transform="translate(205.07,232.35)" d="M4,0A4,4 0 1,1 0,-4A4,4 0 0,1 4,0Z" style="opacity: 1; stroke-width: 0px; fill: rgb(14, 76, 146); fill-opacity: 1;"/><path class="point" transform="translate(136.1,337.31)" d="M4,0A4,4 0 1,1 0,-4A4,4 0 0,1 4,0Z" style="opacity: 1; stroke-width: 0px; fill: rgb(14, 76, 146); fill-opacity: 1;"/><path class="point" transform="translate(141.4,252.81)" d="M4,0A4,4 0 1,1 0,-4A4,4 0 0,1 4,0Z" style="opacity: 1; stroke-width: 0px; fill: rgb(14, 76, 146); fill-opacity: 1;"/><path class="point" transform="translate(218.8,215.96)" d="M4,0A4,4 0 1,1 0,-4A4,4 0 0,1 4,0Z" style="opacity: 1; stroke-width: 0px; fill: rgb(14, 76, 146); fill-opacity: 1;"/><path class="point" transform="translate(216.18,141.12)" d="M4,0A4,4 0 1,1 0,-4A4,4 0 0,1 4,0Z" style="opacity: 1; stroke-width: 0px; fill: rgb(14, 76, 146); fill-opacity: 1;"/><path class="point" transform="translate(152.23,275.28)" d="M4,0A4,4 0 1,1 0,-4A4,4 0 0,1 4,0Z" style="opacity: 1; stroke-width: 0px; fill: rgb(14, 76, 146); fill-opacity: 1;"/><path class="point" transform="translate(181.72,233.35)" d="M4,0A4,4 0 1,1 0,-4A4,4 0 0,1 4,0Z" style="opacity: 1; stroke-width: 0px; fill: rgb(14, 76, 146); fill-opacity: 1;"/><path class="point" transform="translate(171.16,269.08)" d="M4,0A4,4 0 1,1 0,-4A4,4 0 0,1 4,0Z" style="opacity: 1; stroke-width: 0px; fill: rgb(14, 76, 146); fill-opacity: 1;"/><path class="point" transform="translate(188.23,253.07)" d="M4,0A4,4 0 1,1 0,-4A4,4 0 0,1 4,0Z" style="opacity: 1; stroke-width: 0px; fill: rgb(14, 76, 146); fill-opacity: 1;"/><path class="point" transform="translate(170.72,223.5)" d="M4,0A4,4 0 1,1 0,-4A4,4 0 0,1 4,0Z" style="opacity: 1; stroke-width: 0px; fill: rgb(14, 76, 146); fill-opacity: 1;"/><path class="point" transform="translate(233.19,177.73)" d="M4,0A4,4 0 1,1 0,-4A4,4 0 0,1 4,0Z" style="opacity: 1; stroke-width: 0px; fill: rgb(14, 76, 146); fill-opacity: 1;"/><path class="point" transform="translate(329.79,101.9)" d="M4,0A4,4 0 1,1 0,-4A4,4 0 0,1 4,0Z" style="opacity: 1; stroke-width: 0px; fill: rgb(14, 76, 146); fill-opacity: 1;"/><path class="point" transform="translate(195.88,213.59)" d="M4,0A4,4 0 1,1 0,-4A4,4 0 0,1 4,0Z" style="opacity: 1; stroke-width: 0px; fill: rgb(14, 76, 146); fill-opacity: 1;"/><path class="point" transform="translate(206.93,212.76)" d="M4,0A4,4 0 1,1 0,-4A4,4 0 0,1 4,0Z" style="opacity: 1; stroke-width: 0px; fill: rgb(14, 76, 146); fill-opacity: 1;"/><path class="point" transform="translate(259.12,220.99)" d="M4,0A4,4 0 1,1 0,-4A4,4 0 0,1 4,0Z" style="opacity: 1; stroke-width: 0px; fill: rgb(14, 76, 146); fill-opacity: 1;"/><path class="point" transform="translate(300.85,281.79)" d="M4,0A4,4 0 1,1 0,-4A4,4 0 0,1 4,0Z" style="opacity: 1; stroke-width: 0px; fill: rgb(14, 76, 146); fill-opacity: 1;"/><path class="point" transform="translate(244.02,111.63)" d="M4,0A4,4 0 1,1 0,-4A4,4 0 0,1 4,0Z" style="opacity: 1; stroke-width: 0px; fill: rgb(14, 76, 146); fill-opacity: 1;"/><path class="point" transform="translate(236.36,207.17)" d="M4,0A4,4 0 1,1 0,-4A4,4 0 0,1 4,0Z" style="opacity: 1; stroke-width: 0px; fill: rgb(14, 76, 146); fill-opacity: 1;"/><path class="point" transform="translate(229.14,232.76)" d="M4,0A4,4 0 1,1 0,-4A4,4 0 0,1 4,0Z" style="opacity: 1; stroke-width: 0px; fill: rgb(14, 76, 146); fill-opacity: 1;"/><path class="point" transform="translate(198.73,218.16)" d="M4,0A4,4 0 1,1 0,-4A4,4 0 0,1 4,0Z" style="opacity: 1; stroke-width: 0px; fill: rgb(14, 76, 146); fill-opacity: 1;"/><path class="point" transform="translate(154.58,294.44)" d="M4,0A4,4 0 1,1 0,-4A4,4 0 0,1 4,0Z" style="opacity: 1; stroke-width: 0px; fill: rgb(14, 76, 146); fill-opacity: 1;"/><path class="point" transform="translate(216.67,272.02)" d="M4,0A4,4 0 1,1 0,-4A4,4 0 0,1 4,0Z" style="opacity: 1; stroke-width: 0px; fill: rgb(14, 76, 146); fill-opacity: 1;"/><path class="point" transform="translate(244.24,108.67)" d="M4,0A4,4 0 1,1 0,-4A4,4 0 0,1 4,0Z" style="opacity: 1; stroke-width: 0px; fill: rgb(14, 76, 146); fill-opacity: 1;"/><path class="point" transform="translate(202.28,209.54)" d="M4,0A4,4 0 1,1 0,-4A4,4 0 0,1 4,0Z" style="opacity: 1; stroke-width: 0px; fill: rgb(14, 76, 146); fill-opacity: 1;"/><path class="point" transform="translate(216.4,265.25)" d="M4,0A4,4 0 1,1 0,-4A4,4 0 0,1 4,0Z" style="opacity: 1; stroke-width: 0px; fill: rgb(14, 76, 146); fill-opacity: 1;"/><path class="point" transform="translate(190.36,214.59)" d="M4,0A4,4 0 1,1 0,-4A4,4 0 0,1 4,0Z" style="opacity: 1; stroke-width: 0px; fill: rgb(14, 76, 146); fill-opacity: 1;"/><path class="point" transform="translate(179.09,333.22)" d="M4,0A4,4 0 1,1 0,-4A4,4 0 0,1 4,0Z" style="opacity: 1; stroke-width: 0px; fill: rgb(14, 76, 146); fill-opacity: 1;"/><path class="point" transform="translate(263.82,82.54)" d="M4,0A4,4 0 1,1 0,-4A4,4 0 0,1 4,0Z" style="opacity: 1; stroke-width: 0px; fill: rgb(14, 76, 146); fill-opacity: 1;"/></g><g class="text"/></g><g class="trace scatter traceb59d32" style="stroke-miterlimit: 2; opacity: 1;"><g class="fills"/><g class="errorbars"/><g class="lines"><path class="js-line" d="M26.15,306.86L396.85,88.21" style="vector-effect: non-scaling-stroke; fill: none; stroke: rgb(255, 0, 0); stroke-opacity: 1; stroke-width: 2px; opacity: 1;"/></g><g class="points"/><g class="text"/></g></g></g><g class="overplot"/><path class="xlines-above crisp" d="M0,0" style="fill: none;"/><path class="ylines-above crisp" d="M0,0" style="fill: none;"/><g class="overlines-above"/><g class="xaxislayer-above"><g class="xtick"><text text-anchor="middle" x="0" y="533" transform="translate(136,0)" style="font-family: 'Open Sans', verdana, arial, sans-serif; font-size: 12px; fill: rgb(68, 68, 68); fill-opacity: 1; white-space: pre; opacity: 1;">20</text></g><g class="xtick"><text text-anchor="middle" x="0" y="533" style="font-family: 'Open Sans', verdana, arial, sans-serif; font-size: 12px; fill: rgb(68, 68, 68); fill-opacity: 1; white-space: pre; opacity: 1;" transform="translate(245.4,0)">40</text></g><g class="xtick"><text text-anchor="middle" x="0" y="533" style="font-family: 'Open Sans', verdana, arial, sans-serif; font-size: 12px; fill: rgb(68, 68, 68); fill-opacity: 1; white-space: pre; opacity: 1;" transform="translate(354.8,0)">60</text></g><g class="xtick"><text text-anchor="middle" x="0" y="533" style="font-family: 'Open Sans', verdana, arial, sans-serif; font-size: 12px; fill: rgb(68, 68, 68); fill-opacity: 1; white-space: pre; opacity: 1;" transform="translate(464.2,0)">80</text></g></g><g class="yaxislayer-above"><g class="ytick"><text text-anchor="end" x="96" y="4.199999999999999" transform="translate(0,477.94)" style="font-family: 'Open Sans', verdana, arial, sans-serif; font-size: 12px; fill: rgb(68, 68, 68); fill-opacity: 1; white-space: pre; opacity: 1;">20</text></g><g class="ytick"><text text-anchor="end" x="96" y="4.199999999999999" style="font-family: 'Open Sans', verdana, arial, sans-serif; font-size: 12px; fill: rgb(68, 68, 68); fill-opacity: 1; white-space: pre; opacity: 1;" transform="translate(0,415.27)">30</text></g><g class="ytick"><text text-anchor="end" x="96" y="4.199999999999999" style="font-family: 'Open Sans', verdana, arial, sans-serif; font-size: 12px; fill: rgb(68, 68, 68); fill-opacity: 1; white-space: pre; opacity: 1;" transform="translate(0,352.6)">40</text></g><g class="ytick"><text text-anchor="end" x="96" y="4.199999999999999" style="font-family: 'Open Sans', verdana, arial, sans-serif; font-size: 12px; fill: rgb(68, 68, 68); fill-opacity: 1; white-space: pre; opacity: 1;" transform="translate(0,289.91999999999996)">50</text></g><g class="ytick"><text text-anchor="end" x="96" y="4.199999999999999" style="font-family: 'Open Sans', verdana, arial, sans-serif; font-size: 12px; fill: rgb(68, 68, 68); fill-opacity: 1; white-space: pre; opacity: 1;" transform="translate(0,227.25)">60</text></g><g class="ytick"><text text-anchor="end" x="96" y="4.199999999999999" style="font-family: 'Open Sans', verdana, arial, sans-serif; font-size: 12px; fill: rgb(68, 68, 68); fill-opacity: 1; white-space: pre; opacity: 1;" transform="translate(0,164.57999999999998)">70</text></g></g><g class="overaxes-above"/></g></g><g class="polarlayer"/><g class="smithlayer"/><g class="ternarylayer"/><g class="geolayer"/><g class="funnelarealayer"/><g class="pielayer"/><g class="iciclelayer"/><g class="treemaplayer"/><g class="sunburstlayer"/><g class="glimages"/><defs id="topdefs-31b3a1"><g class="clips"/><clipPath id="legend31b3a1"><rect width="309" height="48" x="0" y="0"/></clipPath></defs><g class="layer-above"><g class="imagelayer"/><g class="shapelayer"/></g><g class="infolayer"><g class="legend" pointer-events="all" transform="translate(97,70.35000000000004)"><rect class="bg" shape-rendering="crispEdges" width="309" height="48" x="0" y="0" style="stroke: rgb(68, 68, 68); stroke-opacity: 1; fill: rgb(255, 255, 255); fill-opacity: 1; stroke-width: 0px;"/><g class="scrollbox" transform="" clip-path="url(#legend31b3a1)"><g class="groups"><g class="traces" transform="translate(0,14.5)" style="opacity: 1;"><text class="legendtext" text-anchor="start" x="40" y="4.680000000000001" style="font-family: 'Open Sans', verdana, arial, sans-serif; font-size: 12px; fill: rgb(68, 68, 68); fill-opacity: 1; white-space: pre;">Pearson's r=0.4547; Spearman's ρ=0.3886</text><g class="layers" style="opacity: 1;"><g class="legendfill"/><g class="legendlines"/><g class="legendsymbols"><g class="legendpoints"><path class="scatterpts" transform="translate(20,0)" d="M3,0A3,3 0 1,1 0,-3A3,3 0 0,1 3,0Z" style="opacity: 1; stroke-width: 0px; fill: rgb(255, 255, 255); fill-opacity: 1;"/></g></g></g><rect class="legendtoggle" x="0" y="-9.5" width="306.384765625" height="19" style="fill: rgb(0, 0, 0); fill-opacity: 0;"/></g><g class="traces" transform="translate(0,33.5)" style="opacity: 1;"><text class="legendtext" text-anchor="start" x="40" y="4.680000000000001" style="font-family: 'Open Sans', verdana, arial, sans-serif; font-size: 12px; fill: rgb(68, 68, 68); fill-opacity: 1; white-space: pre;">y = 0.5148*x + 17.6277; R​<tspan style="font-size:70%" dy="-0.6em">2</tspan><tspan dy="0.42em">​</tspan>=0.2068</text><g class="layers" style="opacity: 1;"><g class="legendfill"/><g class="legendlines"><path class="js-line" d="M5,0h30" style="fill: none; stroke: rgb(255, 0, 0); stroke-opacity: 1; stroke-width: 2px;"/></g><g class="legendsymbols"><g class="legendpoints"/></g></g><rect class="legendtoggle" x="0" y="-9.5" width="269.560546875" height="19" style="fill: rgb(0, 0, 0); fill-opacity: 0;"/></g></g></g><rect class="scrollbar" rx="20" ry="3" width="0" height="0" x="0" y="0" style="fill: rgb(128, 139, 164); fill-opacity: 1;"/></g><g class="g-gtitle"/><g class="g-xtitle"><text class="xtitle" x="308.5" y="572" text-anchor="middle" style="font-family: 'Open Sans', verdana, arial, sans-serif; font-size: 14px; fill: rgb(68, 68, 68); opacity: 1; font-weight: normal; white-space: pre;"><tspan class="line" dy="0em" x="308.5" y="572">mn_Longevity [M]</tspan><tspan class="line" dy="1.3em" x="308.5" y="572">(Arya et al., 2010)</tspan></text></g><g class="g-ytitle" transform="translate(-1.4658203125,0)"><text class="ytitle" transform="rotate(-90,59,324.5)" x="59" y="324.5" text-anchor="middle" style="font-family: 'Open Sans', verdana, arial, sans-serif; font-size: 14px; fill: rgb(68, 68, 68); opacity: 1; font-weight: normal; white-space: pre;"><tspan class="line" dy="0em" x="59" y="324.5">mean(Lifespan_25C) [M]</tspan><tspan class="line" dy="1.3em" x="59" y="324.5">(Huang et al., 2020)</tspan></text></g></g><g class="menulayer"><g class="updatemenu-container" style="cursor: pointer;"><g class="updatemenu-header-group" transform="translate(12,12)"><g class="updatemenu-header" transform="translate(1,11)" style="pointer-events: all;"><rect class="updatemenu-item-rect" rx="2" ry="2" shape-rendering="crispEdges" x="0" y="0" width="119" height="33" style="stroke: rgb(190, 200, 217); stroke-opacity: 1; fill: rgb(255, 255, 255); fill-opacity: 1; stroke-width: 1px;"/><text class="updatemenu-item-text" text-anchor="start" data-notex="1" x="12" y="19.5" style="font-family: 'Open Sans', verdana, arial, sans-serif; font-size: 12px; fill: rgb(68, 68, 68); fill-opacity: 1; white-space: pre;">Linear x-axis</text></g><text class="updatemenu-header-arrow" text-anchor="end" x="115" y="29.5" style="font-family: 'Open Sans', verdana, arial, sans-serif; font-size: 12px; fill: rgb(68, 68, 68); fill-opacity: 1;">▼</text></g><g class="updatemenu-header-group" transform="translate(139,12)"><g class="updatemenu-header" transform="translate(1,11)" style="pointer-events: all;"><rect class="updatemenu-item-rect" rx="2" ry="2" shape-rendering="crispEdges" x="0" y="0" width="119" height="33" style="stroke: rgb(190, 200, 217); stroke-opacity: 1; fill: rgb(255, 255, 255); fill-opacity: 1; stroke-width: 1px;"/><text class="updatemenu-item-text" text-anchor="start" data-notex="1" x="12" y="19.5" style="font-family: 'Open Sans', verdana, arial, sans-serif; font-size: 12px; fill: rgb(68, 68, 68); fill-opacity: 1; white-space: pre;">Linear y-axis</text></g><text class="updatemenu-header-arrow" text-anchor="end" x="115" y="29.5" style="font-family: 'Open Sans', verdana, arial, sans-serif; font-size: 12px; fill: rgb(68, 68, 68); fill-opacity: 1;">▼</text></g><g class="updatemenu-dropdown-button-group" updatemenu-active-index="-1" style="pointer-events: all;"><rect class="scrollbox-bg" opacity="0" x="0" y="0" width="0" height="0" style="pointer-events: all;"/></g></g></g></svg>